<svg width="77" height="56" viewBox="0 0 77 56" fill="none" xmlns="http://www.w3.org/2000/svg">
<path d="M35.6798 0.308511C35.3572 0.0988674 34.5025 0.0262985 34.1115 0.340764L29.5517 4.02969L29.5195 46.2003C29.5195 47.4501 28.8462 48.3814 28.056 48.6878C27.0239 49.087 26.1329 48.6919 25.379 48.0145L19.5291 42.7291L15.1064 47.301C20.4846 52.7154 25.633 58.5612 32.1642 54.8119C34.43 53.5096 36.2603 50.9576 36.2643 47.7081L36.3329 1.61878C36.3329 0.937442 35.9741 0.502028 35.6878 0.312543L35.6798 0.308511Z" fill="#00FF00"/>
<path d="M7.27696 30.1223L19.7266 17.5759C19.779 14.3345 20.2426 11.843 18.0333 11.6091C17.1342 11.5124 16.5093 11.7462 15.8562 12.4114L0.8667 27.6549C-0.419383 28.9612 -0.197645 31.9728 1.02796 33.2065L11.5021 43.7532C12.6995 44.9586 14.8403 42.5558 16.594 40.0199C13.7396 36.2785 9.90557 33.662 7.28099 30.1223H7.27696Z" fill="#00FF00"/>
<path d="M75.5119 27.3606L60.6756 12.3348C59.6596 11.3067 57.8535 11.3148 56.9504 12.3227C56.5512 14.0926 56.7246 15.6972 56.7407 17.5759L69.279 30.1465L51.0199 48.3129C50.3506 48.9781 49.1613 48.962 48.4316 48.6596C47.8107 48.4016 47.21 47.7041 47.21 46.6357L47.1536 8.39592C47.1455 1.89696 47.335 4.44897 42.6261 0.187559C42.2632 -0.139002 41.5335 0.0383892 41.2553 0.143211C40.828 0.304475 40.445 0.836648 40.4409 1.49783L40.4167 9.81908L40.449 47.0429C40.449 50.8246 42.8841 53.8362 45.8997 55.1828C49.4355 56.7631 53.201 55.6464 55.9586 52.8928L75.524 33.3596C76.8988 31.9849 76.802 28.6749 75.5079 27.3606H75.5119Z" fill="#00FF00"/>
</svg>
